<?xml version="1.0" encoding="UTF-8" standalone="no"?>
<!-- Created with Inkscape (http://www.inkscape.org/) -->

<svg
   xmlns:dc="http://purl.org/dc/elements/1.1/"
   xmlns:cc="http://creativecommons.org/ns#"
   xmlns:rdf="http://www.w3.org/1999/02/22-rdf-syntax-ns#"
   xmlns:svg="http://www.w3.org/2000/svg"
   xmlns="http://www.w3.org/2000/svg"
   xmlns:sodipodi="http://sodipodi.sourceforge.net/DTD/sodipodi-0.dtd"
   xmlns:inkscape="http://www.inkscape.org/namespaces/inkscape"
   width="591mm"
   height="353mm"
   viewBox="0 0 2094.0939 1250.7885"
   id="svg2"
   version="1.1"
   inkscape:version="0.91 r13725"
   sodipodi:docname="logo.svg">
  <defs
     id="defs4" />
  <sodipodi:namedview
     id="base"
     pagecolor="#ffffff"
     bordercolor="#666666"
     borderopacity="1.0"
     inkscape:pageopacity="0.0"
     inkscape:pageshadow="2"
     inkscape:zoom="0.1767767"
     inkscape:cx="196.55481"
     inkscape:cy="843.24203"
     inkscape:document-units="px"
     inkscape:current-layer="layer1"
     showgrid="false"
     inkscape:snap-bbox="true"
     showguides="true"
     inkscape:guide-bbox="true"
     inkscape:snap-bbox-edge-midpoints="true"
     inkscape:bbox-nodes="false"
     inkscape:bbox-paths="false"
     inkscape:snap-bbox-midpoints="false"
     inkscape:snap-global="false"
     inkscape:snap-nodes="true"
     inkscape:snap-others="false"
     inkscape:object-nodes="true"
     inkscape:object-paths="true"
     inkscape:snap-smooth-nodes="false"
     inkscape:snap-intersection-paths="true"
     inkscape:snap-midpoints="false"
     inkscape:window-width="1366"
     inkscape:window-height="715"
     inkscape:window-x="0"
     inkscape:window-y="0"
     inkscape:window-maximized="1" />
  <metadata
     id="metadata7">
    <rdf:RDF>
      <cc:Work
         rdf:about="">
        <dc:format>image/svg+xml</dc:format>
        <dc:type
           rdf:resource="http://purl.org/dc/dcmitype/StillImage" />
        <dc:title></dc:title>
      </cc:Work>
    </rdf:RDF>
  </metadata>
  <g
     inkscape:label="Layer 1"
     inkscape:groupmode="layer"
     id="layer1"
     transform="translate(0,198.42473)">
    <rect
       style="opacity:0.73200001;fill:#ffcc00;fill-opacity:1;fill-rule:nonzero;stroke:none;stroke-width:1.20000005;stroke-linecap:round;stroke-linejoin:round;stroke-miterlimit:4;stroke-dasharray:none;stroke-opacity:1"
       id="rect4236-5"
       width="967.3222"
       height="967.32031"
       x="-3531.7183"
       y="-580.53503"
       transform="matrix(0.25881905,-0.96592583,0.96592583,0.25881905,0,0)" />
    <rect
       style="opacity:0.73200001;fill:#ffcc00;fill-opacity:1;fill-rule:nonzero;stroke:none;stroke-width:1.20000005;stroke-linecap:round;stroke-linejoin:round;stroke-miterlimit:4;stroke-dasharray:none;stroke-opacity:1"
       id="rect4236"
       width="967.3222"
       height="967.32031"
       x="-3171.7935"
       y="956.47223"
       transform="matrix(0.70710678,-0.70710678,0.70710678,0.70710678,0,0)" />
    <rect
       style="opacity:1;fill:#99cc33;fill-opacity:1;fill-rule:nonzero;stroke:none;stroke-width:1.20000005;stroke-linecap:round;stroke-linejoin:round;stroke-miterlimit:4;stroke-dasharray:none;stroke-opacity:1"
       id="rect4160-7"
       width="642.45709"
       height="242.98065"
       x="-2063.5681"
       y="1160.7369"
       ry="0"
       transform="scale(-1,1)" />
    <rect
       style="opacity:1;fill:#99cc33;fill-opacity:1;fill-rule:nonzero;stroke:none;stroke-width:1.20000005;stroke-linecap:round;stroke-linejoin:round;stroke-miterlimit:4;stroke-dasharray:none;stroke-opacity:1"
       id="rect4179-5"
       width="44.285782"
       height="1062.843"
       x="-185.43571"
       y="-77.732582" />
    <path
       style="opacity:0.73200001;fill:#99cc33;fill-opacity:1;fill-rule:nonzero;stroke:none;stroke-width:1.20000005;stroke-linecap:round;stroke-linejoin:round;stroke-miterlimit:4;stroke-dasharray:none;stroke-opacity:1"
       d="m -882.46822,2435.4639 a 483.66104,483.66104 0 0 0 -483.66208,483.6602 483.66104,483.66104 0 0 0 483.66208,483.6601 483.66104,483.66104 0 0 0 483.66014,-483.6601 483.66104,483.66104 0 0 0 -483.66014,-483.6602 z m 0,115.9649 a 367.69553,367.69553 0 0 1 367.6953,367.6953 367.69553,367.69553 0 0 1 -367.6953,367.6953 367.69553,367.69553 0 0 1 -367.69528,-367.6953 367.69553,367.69553 0 0 1 367.69528,-367.6953 z"
       id="path4229"
       inkscape:connector-curvature="0" />
    <path
       style="fill:none;fill-rule:evenodd;stroke:#000000;stroke-width:1px;stroke-linecap:butt;stroke-linejoin:miter;stroke-opacity:1"
       d="M -1474.8298,3261.1244 -290.10864,2577.1237"
       id="path4268"
       inkscape:connector-curvature="0" />
    <path
       style="fill:none;fill-rule:evenodd;stroke:#000000;stroke-width:1px;stroke-linecap:butt;stroke-linejoin:miter;stroke-opacity:1"
       d="m -198.46982,2919.1233 -1367.99888,0"
       id="path4270"
       inkscape:connector-curvature="0" />
    <path
       style="fill:#003399;fill-rule:evenodd;stroke:#000000;stroke-width:1px;stroke-linecap:butt;stroke-linejoin:miter;stroke-opacity:1"
       d="m -675.09395,2799.3956 322.04017,-185.9304 43.05378,305.6581 -364,0 z"
       id="path4274"
       inkscape:connector-curvature="0" />
    <rect
       style="opacity:0.73200001;fill:#ffcc00;fill-opacity:1;fill-rule:nonzero;stroke:none;stroke-width:1.20000005;stroke-linecap:round;stroke-linejoin:round;stroke-miterlimit:4;stroke-dasharray:none;stroke-opacity:1"
       id="rect4236-5-6"
       width="967.3222"
       height="967.32031"
       x="-2704.3472"
       y="2026.4158"
       transform="matrix(0.25881905,-0.96592583,0.96592583,0.25881905,0,0)" />
    <rect
       style="opacity:0.73200001;fill:#ffcc00;fill-opacity:1;fill-rule:nonzero;stroke:none;stroke-width:1.20000005;stroke-linecap:round;stroke-linejoin:round;stroke-miterlimit:4;stroke-dasharray:none;stroke-opacity:1"
       id="rect4236-2"
       width="967.3222"
       height="967.32031"
       x="-1151.7936"
       y="2800.4724"
       transform="matrix(0.70710678,-0.70710678,0.70710678,0.70710678,0,0)" />
    <path
       style="fill:none;fill-rule:evenodd;stroke:#000000;stroke-width:1px;stroke-linecap:butt;stroke-linejoin:miter;stroke-opacity:1"
       d="M 1257.4308,3136.6737 2442.152,2452.673"
       id="path4268-1"
       inkscape:connector-curvature="0" />
    <path
       style="fill:none;fill-rule:evenodd;stroke:#000000;stroke-width:1px;stroke-linecap:butt;stroke-linejoin:miter;stroke-opacity:1"
       d="m 2533.7908,2794.6726 -1367.9989,0"
       id="path4270-2"
       inkscape:connector-curvature="0" />
    <g
       id="g4469"
       transform="translate(2746.3431,-174.3633)">
      <path
         sodipodi:nodetypes="ccsccccc"
         inkscape:connector-curvature="0"
         id="rect4179-0"
         d="m -2388.0541,436.91735 c -3.1807,-15.51229 -1.9632,-54.88242 -18.477,1.92952 0,46.40528 -8.2991,75.71527 -13.0728,107.01517 -8.6918,56.98879 -47.2561,117.376 -21.0751,284.71095 27.9638,153.7669 19.2527,220.68101 19.2082,331.40121 l 33.4167,0 c 0,-95.3526 8.1242,-157.5373 -14.1585,-283.8095 -38.6659,-270.4224 14.1585,-288.80414 14.1585,-441.24735 z"
         style="opacity:1;fill:#99cc33;fill-opacity:1;fill-rule:nonzero;stroke:none;stroke-width:1.20000005;stroke-linecap:round;stroke-linejoin:round;stroke-miterlimit:4;stroke-dasharray:none;stroke-opacity:1" />
      <path
         sodipodi:nodetypes="ccsccccc"
         inkscape:connector-curvature="0"
         id="rect4179"
         d="m -2412.3037,99.13131 c 4.2153,-22.739085 2.6018,-80.450786 24.4868,2.82843 0,68.02435 10.9985,110.98915 17.3249,156.87089 11.5188,83.53847 62.6265,172.05859 27.9299,417.35076 -37.0593,225.40316 -25.5148,323.4908 -25.4558,485.79291 l -44.2858,0 c 0,-139.775 -10.7667,-230.93013 18.7637,-416.02944 51.2423,-396.40547 -18.7637,-423.35082 -18.7637,-646.81355 z"
         style="opacity:1;fill:#99cc33;fill-opacity:1;fill-rule:nonzero;stroke:none;stroke-width:1.20000005;stroke-linecap:round;stroke-linejoin:round;stroke-miterlimit:4;stroke-dasharray:none;stroke-opacity:1" />
      <g
         id="g4181">
        <rect
           style="opacity:1;fill:#000000;fill-opacity:1;fill-rule:nonzero;stroke:none;stroke-width:1.20000005;stroke-linecap:round;stroke-linejoin:round;stroke-miterlimit:4;stroke-dasharray:none;stroke-opacity:1"
           id="rect4154"
           width="44.285763"
           height="121.42857"
           x="-2456.5894"
           y="1040.5457"
           ry="0" />
        <circle
           style="opacity:1;fill:#000000;fill-opacity:1;fill-rule:nonzero;stroke:none;stroke-width:1.20000005;stroke-linecap:round;stroke-linejoin:round;stroke-miterlimit:4;stroke-dasharray:none;stroke-opacity:1"
           id="path4152"
           cx="-2533.7322"
           cy="1040.5458"
           r="121.42857" />
      </g>
      <path
         sodipodi:nodetypes="ccccccccccccc"
         inkscape:connector-curvature="0"
         id="rect4160"
         d="m -1769.8466,1070.9936 -516.9367,0 -125.5203,0 -2.1213,31.1396 0.8539,24.0878 0.113,3.1872 0.15,4.2319 1.0044,28.3342 642.457,0 0,-75.7271 0,-2.9124 0,-2.9124 z"
         style="opacity:1;fill:#834a00;fill-opacity:1;fill-rule:nonzero;stroke:none;stroke-width:1.20000005;stroke-linecap:round;stroke-linejoin:round;stroke-miterlimit:4;stroke-dasharray:none;stroke-opacity:1" />
      <g
         transform="translate(-58,0)"
         id="g4444">
        <path
           style="opacity:1;fill:#b77d33;fill-opacity:1;fill-rule:nonzero;stroke:none;stroke-width:1.20000005;stroke-linecap:round;stroke-linejoin:round;stroke-miterlimit:4;stroke-dasharray:none;stroke-opacity:1"
           d="m -1342.207,194.65391 c -128.2749,-3e-4 -251.2961,50.9565 -342.0004,141.6604 -90.7042,90.7039 -141.6615,213.7249 -141.6617,341.9998 3e-4,128.2749 50.9575,251.2959 141.6617,341.99979 90.7043,90.7038 213.7255,141.6606 342.0004,141.6603 128.2746,-3e-4 251.2953,-50.9572 341.9991,-141.661 90.70377,-90.70389 141.6608,-213.72449 141.661,-341.99909 l -115.96479,0 c -1.3e-4,203.0725 -164.62281,367.69519 -367.69531,367.69529 -203.0724,-10e-5 -367.6952,-164.62279 -367.6953,-367.69529 10e-5,-203.0725 164.6229,-367.6952 367.6953,-367.6953 225.4691,7.2442 243.9419,226.8536 418.48431,126.082 133.72489,-117.6115 -245.77941,-241.8671 -418.48431,-242.0469 z"
           id="path4229-9"
           inkscape:connector-curvature="0"
           sodipodi:nodetypes="csssssccssccc" />
        <ellipse
           style="opacity:1;fill:#feaf47;fill-opacity:1;fill-rule:nonzero;stroke:none;stroke-width:1.20000005;stroke-linecap:round;stroke-linejoin:round;stroke-miterlimit:4;stroke-dasharray:none;stroke-opacity:1"
           id="path4311"
           cx="-919.80975"
           cy="659.76788"
           rx="231.56281"
           ry="78.150978" />
        <path
           style="opacity:1;fill:#cc0000;fill-opacity:1;fill-rule:nonzero;stroke:none;stroke-width:1.20000005;stroke-linecap:round;stroke-linejoin:round;stroke-miterlimit:4;stroke-dasharray:none;stroke-opacity:1"
           d="m -919.81008,581.61751 a 231.56281,78.150978 0 0 0 -231.56252,78.1504 231.56281,78.150978 0 0 0 10.2676,22.7637 231.56281,42.795639 0 0 1 221.29492,-30.2031 231.56281,42.795639 0 0 1 221.35158,30.3613 231.56281,78.150978 0 0 0 10.2109,-22.9219 231.56281,78.150978 0 0 0 -231.56248,-78.1504 z"
           id="path4311-0"
           inkscape:connector-curvature="0" />
        <ellipse
           style="opacity:1;fill:#ffffff;fill-opacity:1;fill-rule:nonzero;stroke:none;stroke-width:1.20000005;stroke-linecap:round;stroke-linejoin:round;stroke-miterlimit:4;stroke-dasharray:none;stroke-opacity:1"
           id="path4348"
           cx="-1180.3545"
           cy="352.06787"
           rx="20.506096"
           ry="5.6568542"
           transform="matrix(0.97310802,-0.23034925,0.23034925,0.97310802,0,0)" />
        <ellipse
           style="opacity:1;fill:#ffffff;fill-opacity:1;fill-rule:nonzero;stroke:none;stroke-width:1.20000005;stroke-linecap:round;stroke-linejoin:round;stroke-miterlimit:4;stroke-dasharray:none;stroke-opacity:1"
           id="path4348-6"
           cx="-327.72253"
           cy="906.02747"
           rx="27.313072"
           ry="7.5346408"
           transform="matrix(0.87263947,0.48836499,-0.48836499,0.87263947,0,0)" />
        <ellipse
           style="opacity:1;fill:#ffffff;fill-opacity:1;fill-rule:nonzero;stroke:none;stroke-width:1.20000005;stroke-linecap:round;stroke-linejoin:round;stroke-miterlimit:4;stroke-dasharray:none;stroke-opacity:1"
           id="path4348-0"
           cx="-786.41852"
           cy="686.2995"
           rx="38.986858"
           ry="10.754996"
           transform="matrix(0.99437702,0.10589776,-0.10589776,0.99437702,0,0)" />
        <ellipse
           style="opacity:1;fill:#ffffff;fill-opacity:1;fill-rule:nonzero;stroke:none;stroke-width:1.20000005;stroke-linecap:round;stroke-linejoin:round;stroke-miterlimit:4;stroke-dasharray:none;stroke-opacity:1"
           id="path4348-62"
           cx="-1009.9218"
           cy="556.6181"
           rx="44.858471"
           ry="12.374751"
           transform="matrix(0.99821561,-0.05971266,0.05971266,0.99821561,0,0)" />
        <path
           style="opacity:1;fill:#e3c49a;fill-opacity:1;fill-rule:nonzero;stroke:none;stroke-width:1.20000005;stroke-linecap:round;stroke-linejoin:round;stroke-miterlimit:4;stroke-dasharray:none;stroke-opacity:1"
           d="m -974.51169,678.31411 c 31.33835,-5.39644 83.94929,-4.90741 115.96479,0 10.14038,40.1141 12.78685,78.72942 16.5469,117.56746 -6.95163,4.51896 -14.5069,4.81247 -22.79159,0 -15.72255,-33.65233 -14.63897,-38.9021 -19.79899,0 -9.37356,5.11333 -21.24708,2.72681 -33.23402,0 0.93297,-34.0351 -5.92489,-27.47205 -11.31371,0 -12.94609,2.90245 -25.06692,3.74174 -35.35534,0 -1.565,-54.81572 -10.95343,-10.53456 -17.67767,0 -5.4868,3.11129 -15.82806,5.9503 -25.52718,0 11.06227,-39.18915 8.17609,-69.07934 33.18681,-117.56746 z"
           id="rect4404"
           inkscape:connector-curvature="0"
           sodipodi:nodetypes="ccccccccccc" />
      </g>
    </g>
  </g>
</svg>
